<?xml version="1.0" standalone="no"?>
<!DOCTYPE svg PUBLIC "-//W3C//DTD SVG 20010904//EN"
 "http://www.w3.org/TR/2001/REC-SVG-20010904/DTD/svg10.dtd">
<svg version="1.0" xmlns="http://www.w3.org/2000/svg"
 width="399.000000pt" height="87.000000pt" viewBox="0 0 399.000000 87.000000"
 preserveAspectRatio="xMidYMid meet">

<g transform="translate(0.000000,87.000000) scale(0.100000,-0.100000)"
fill="#000000" stroke="none">
<path d="M0 435 l0 -435 1995 0 1995 0 0 435 0 435 -1995 0 -1995 0 0 -435z
m796 268 c3 -16 7 -33 9 -39 2 -6 44 -21 94 -34 l91 -24 0 -124 0 -124 -47
-58 c-51 -62 -57 -66 -97 -50 -20 7 -26 16 -26 40 0 19 -5 31 -15 32 -8 0 -20
1 -25 2 -6 1 -34 -42 -63 -94 -44 -80 -56 -96 -79 -98 -33 -4 -50 21 -69 96
-7 29 -18 57 -24 62 -13 11 -216 90 -231 90 -6 0 -32 -32 -58 -71 -44 -66 -47
-75 -44 -125 3 -49 1 -54 -17 -54 -16 0 -25 12 -39 54 -18 53 -18 55 4 127 16
54 21 91 18 148 l-3 76 185 97 185 97 122 1 123 0 6 -27z m904 -158 c35 -18
37 -26 13 -48 -15 -13 -22 -13 -42 -2 -14 7 -31 11 -38 8 -25 -10 -13 -29 29
-44 84 -31 99 -102 29 -142 -38 -23 -89 -17 -127 16 -25 22 -25 23 -6 40 18
17 21 17 49 1 29 -17 63 -14 63 6 0 5 -23 21 -50 35 -57 29 -75 60 -60 100 16
43 86 58 140 30z m245 1 c72 -31 99 -136 50 -195 -79 -93 -225 -42 -225 78 0
56 25 96 74 117 40 17 59 17 101 0z m1834 1 c31 -15 35 -28 18 -51 -13 -18
-16 -18 -37 -3 -23 16 -50 13 -50 -7 0 -6 24 -22 53 -36 45 -22 52 -29 55 -57
5 -46 -13 -71 -58 -84 -34 -10 -46 -9 -79 6 -48 21 -56 37 -30 61 18 16 20 16
38 0 21 -19 62 -18 69 2 2 7 -15 21 -42 33 -26 11 -54 31 -63 45 -42 65 49
131 126 91z m-2409 -17 c14 -14 20 -33 19 -63 0 -23 3 -58 6 -79 6 -29 3 -40
-14 -57 -18 -18 -33 -21 -101 -21 l-80 0 0 120 0 120 75 0 c62 0 79 -4 95 -20z
m130 -100 l0 -120 -30 0 -30 0 0 120 0 120 30 0 30 0 0 -120z m679 53 l41 -68
0 68 0 67 30 0 30 0 0 -120 0 -120 -32 0 c-30 0 -37 6 -75 73 l-43 72 0 -72 0
-73 -30 0 -30 0 0 120 0 120 34 0 c31 0 37 -6 75 -67z m330 41 c59 -49 59
-139 0 -188 -26 -22 -40 -26 -100 -26 l-69 0 0 120 0 120 69 0 c60 0 74 -4
100 -26z m266 1 c30 -29 32 -64 5 -98 l-21 -26 21 -40 c11 -22 20 -43 20 -46
0 -3 -15 -5 -32 -5 -28 0 -36 6 -53 38 -26 49 -49 49 -53 0 -3 -35 -6 -38 -33
-38 l-29 0 0 120 0 120 75 0 c67 0 79 -3 100 -25z m245 0 c0 -24 -3 -25 -61
-25 -57 0 -60 -1 -57 -22 2 -19 10 -24 46 -26 33 -3 42 -7 42 -22 0 -15 -9
-19 -42 -22 -36 -2 -44 -7 -46 -25 -3 -22 0 -23 57 -23 58 0 61 -1 61 -25 0
-25 -1 -25 -90 -25 l-90 0 0 120 0 120 90 0 c89 0 90 0 90 -25z m202 -42 c14
-38 35 -92 47 -120 l21 -53 -34 0 c-26 0 -36 5 -41 20 -5 16 -15 20 -50 20
-35 0 -45 -4 -50 -20 -4 -14 -15 -20 -36 -20 -16 0 -29 3 -29 8 0 4 19 58 42
119 42 110 44 113 74 113 29 0 33 -4 56 -67z m210 -10 l24 -78 23 78 23 77 37
0 38 0 7 -87 c4 -49 9 -103 12 -120 6 -31 5 -33 -24 -33 -33 0 -42 17 -42 83
0 52 -14 39 -30 -28 -13 -54 -15 -56 -44 -53 -27 3 -32 8 -47 58 -17 58 -26
54 -31 -15 -3 -37 -5 -40 -36 -43 -32 -3 -34 -2 -28 25 3 15 8 62 11 103 9
106 11 110 50 110 34 0 34 -1 57 -77z m-3110 -286 c3 -52 1 -57 -17 -57 -15 0
-25 10 -33 35 -11 29 -10 39 4 67 9 18 22 39 28 47 12 16 13 12 18 -92z m462
7 c14 -31 26 -58 26 -60 0 -10 -48 -3 -64 9 -15 11 -16 18 -4 60 6 26 13 47
14 47 2 0 14 -25 28 -56z"/>
<path d="M1855 475 c-14 -13 -25 -33 -25 -45 0 -25 42 -70 65 -70 23 0 65 45
65 70 0 25 -42 70 -65 70 -9 0 -27 -11 -40 -25z"/>
<path d="M1264 495 c-8 -20 2 -45 19 -45 7 0 22 6 32 14 16 12 17 16 6 30 -17
20 -50 21 -57 1z"/>
<path d="M1262 383 c4 -33 37 -43 61 -18 24 24 10 45 -30 45 -32 0 -34 -2 -31
-27z"/>
<path d="M2404 487 c-3 -8 -4 -39 -2 -68 3 -51 5 -54 27 -51 55 6 82 71 44
104 -28 24 -62 32 -69 15z"/>
<path d="M2662 473 c3 -24 8 -28 33 -28 25 0 30 4 30 25 0 21 -5 26 -33 28
-31 3 -33 2 -30 -25z"/>
<path d="M3153 435 c-11 -34 -10 -35 14 -35 21 0 23 3 17 23 -14 46 -20 48
-31 12z"/>
</g>
</svg>
